{"title":"The Doors &amp; BluRay Xtras (1991) 1080p","uid":11253785,"size":5706803883,"categoryP":"video","categoryS":"hd___movies","magnet":"?xt=urn:btih:bd44cc55218ceacab942dba8b4a3c6f2516459cd&amp;dn=The+Doors+%26amp%3B+BluRay+Xtras+%281991%29+1080p&amp;tr=udp%3A%2F%2Ftracker.openbittorrent.com%3A80&amp;tr=udp%3A%2F%2Fopen.demonii.com%3A1337&amp;tr=udp%3A%2F%2Ftracker.coppersurfer.tk%3A6969&amp;tr=udp%3A%2F%2Fexodus.desync.com%3A6969","seeders":7,"leechers":2,"uploader":"AlienMethod","files":-1,"time":1413868471,"description":"Double-Encode/MP4x264\n2-Channel AAC@192kbps (audio 1)\n6-Channel AC3@448kbps (audio 2)\n\n&quot;The story of the famous and influential 1960s rock band and its lead singer and composer, Jim Morrison, from his days as a UCLA film student in Los Angeles, to his untimely death in Paris, France at age 27 in 1971.&quot;\n\n\n\nVideo\nID : 1\nFormat : AVC\nFormat/Info : Advanced Video Codec\nFormat profile : &lt;a class=&quot;__cf_email__&quot; href=&quot;/cdn-cgi/l/email-protection&quot; data-cfemail=&quot;a2eacbc5cae2ee968c92&quot;&gt;[email&amp;#160;protected]&lt;/a&gt;&lt;script cf-hash='f9e31' type=&quot;text/javascript&quot;&gt;\n/* &lt;![CDATA[ */!function(){try{var t=&quot;currentScript&quot;in document?document.currentScript:function(){for(var t=document.getElementsByTagName(&quot;script&quot;),e=t.length;e--;)if(t[e].getAttribute(&quot;cf-hash&quot;))return t[e]}();if(t&amp;&amp;t.previousSibling){var e,r,n,i,c=t.previousSibling,a=c.getAttribute(&quot;data-cfemail&quot;);if(a){for(e=&quot;&quot;,r=parseInt(a.substr(0,2),16),n=2;a.length-n;n+=2)i=parseInt(a.substr(n,2),16)^r,e+=String.fromCharCode(i);e=document.createTextNode(e),c.parentNode.replaceChild(e,c)}}}catch(u){}}();/* ]]&gt; */&lt;/script&gt;\nFormat settings, CABAC : Yes\nFormat settings, ReFrames : 4 frames\nCodec ID : avc1\nCodec ID/Info : Advanced Video Coding\nDuration : 2h 20mn\nBit rate : 3 277 Kbps\nMaximum bit rate : 19.9 Mbps\nWidth : 1 904 pixels\nHeight : 816 pixels\nDisplay aspect ratio : 2.35:1\nFrame rate mode : Constant\nFrame rate : 23.976 fps\nColor space : YUV\nChroma subsampling : 4:2:0\nBit depth : 8 bits\nScan type : Progressive\nBits/(Pixel*Frame) : 0.088\nStream size : 3.22 GiB (83%)\nTitle : The.Doors.1991.VideoEncode_track1_und.h264\nWriting library : x264 core 142 r2479 dd79a61\nEncoded date : UTC 2014-10-19 22:05:24\nTagged date : UTC 2014-10-19 22:06:24\n\nAudio #1\nID : 2\nFormat : AAC\nFormat/Info : Advanced Audio Codec\nFormat profile : LC\nCodec ID : 40\nDuration : 2h 20mn\nBit rate mode : Variable\nBit rate : 221 Kbps\nMaximum bit rate : 268 Kbps\nChannel(s) : 2 channels\nChannel positions : Front: L R\nSampling rate : 48.0 KHz\nCompression mode : Lossy\nStream size : 223 MiB (6%)\nTitle : The.Doors.1991.AAC.m4a\nEncoded date : UTC 2014-10-19 22:05:39\nTagged date : UTC 2014-10-19 22:06:24\n\nAudio #2\nID : 3\nFormat : AC-3\nFormat/Info : Audio Coding 3\nMode extension : CM (complete main)\nFormat settings, Endianness : Big\nCodec ID : ac-3\nDuration : 2h 20mn\nBit rate mode : Constant\nBit rate : 448 Kbps\nChannel(s) : 6 channels\nChannel positions : Front: L C R, Side: L R, LFE\nSampling rate : 48.0 KHz\nBit depth : 16 bits\nCompression mode : Lossy\nStream size : 451 MiB (11%)\nTitle : The.Doors.1991.AC3.ac3\nEncoded date : UTC 2014-10-19 22:06:14\nTagged date : UTC 2014-10-19 22:06:24\n\nm/ AM m/","torrent":{"xt":"urn:btih:bd44cc55218ceacab942dba8b4a3c6f2516459cd","amp;dn":"The+Doors+%26amp%3B+BluRay+Xtras+%281991%29+1080p","amp;tr":["udp%3A%2F%2Ftracker.openbittorrent.com%3A80","udp%3A%2F%2Fopen.demonii.com%3A1337","udp%3A%2F%2Ftracker.coppersurfer.tk%3A6969","udp%3A%2F%2Fexodus.desync.com%3A6969"],"infoHash":"bd44cc55218ceacab942dba8b4a3c6f2516459cd","infoHashBuffer":{"type":"Buffer","data":[189,68,204,85,33,140,234,202,185,66,219,168,180,163,198,242,81,100,89,205]},"announce":[],"urlList":[]}}